<?xml version="1.0" standalone="no"?>
<!DOCTYPE svg PUBLIC "-//W3C//DTD SVG 20010904//EN"
 "http://www.w3.org/TR/2001/REC-SVG-20010904/DTD/svg10.dtd">
<svg version="1.0" xmlns="http://www.w3.org/2000/svg"
 width="512.000000pt" height="512.000000pt" viewBox="0 0 512.000000 512.000000"
 preserveAspectRatio="xMidYMid meet">

<g transform="translate(0.000000,512.000000) scale(0.100000,-0.100000)"
fill="#000000" stroke="none">
<path d="M2708 4449 c-239 -56 -526 -275 -813 -619 -166 -199 -374 -497 -520
-743 -32 -54 -59 -96 -60 -95 -2 2 3 64 10 138 54 563 5 870 -165 1040 -108
108 -250 157 -428 147 -120 -6 -199 -32 -298 -99 -103 -69 -165 -143 -229
-273 -104 -210 -156 -427 -191 -800 -23 -250 -15 -845 15 -1072 53 -402 152
-741 282 -964 113 -196 228 -310 392 -390 99 -48 187 -63 341 -57 204 8 317
60 482 223 161 160 273 348 509 860 106 231 267 550 319 633 l33 53 0 -198 c0
-323 38 -527 129 -703 104 -203 276 -346 474 -396 148 -37 354 3 494 97 178
119 280 274 590 899 262 530 409 784 755 1303 201 303 248 385 276 482 22 76
16 187 -15 250 -33 67 -109 131 -187 155 -190 58 -406 -15 -697 -239 -199
-152 -533 -500 -722 -751 -37 -50 -68 -89 -70 -87 -2 1 1 32 7 67 17 117 22
359 10 473 -16 143 -52 282 -98 376 -44 90 -148 201 -230 244 -91 48 -288 71
-395 46z"/>
</g>
</svg>
